<?xml version="1.0" standalone="no"?>
<!DOCTYPE svg PUBLIC "-//W3C//DTD SVG 1.1//EN"
  "http://www.w3.org/Graphics/SVG/1.1/DTD/svg11.dtd">
<svg width="846mm" height="697.9999999999998mm" viewBox="-447 -268.49999999999994 846 697.9999999999998" xmlns="http://www.w3.org/2000/svg" version="1.1">
	<title>svgOutput</title>
	<desc>made with tinkercad</desc>
<path d="M -28 337.5979919433593 L -31.003000259399414 337.5979919433593 L -57.994998931884766 337.5979919433593 L -57.994998931884766 340.49999999999994 L -108.0009994506836 340.49999999999994 L -108.0009994506836 337.5979919433593 L -157.9969940185547 337.5979919433593 L -157.9969940185547 340.49999999999994 L -162.9969940185547 340.49999999999994 L -183.0019989013672 340.49999999999994 L -206.9980010986328 340.49999999999994 L -208.0030059814453 340.49999999999994 L -208.0030059814453 337.5979919433593 L -227.0030059814453 337.5979919433593 L -257.99798583984375 337.5979919433593 L -257.99798583984375 340.49999999999994 L -308.0039978027344 340.49999999999994 L -308.0039978027344 337.5979919433593 L -354.99798583984375 337.5979919433593 L -358 337.5979919433593 L -358 337.49999999999994 L -354.99798583984375 337.49999999999994 L -354.99798583984375 288.5039978027343 L -358 288.5039978027343 L -358 238.49899291992182 L -354.99798583984375 238.49899291992182 L -354.99798583984375 189.50300598144528 L -358 189.50300598144528 L -358 139.49699401855466 L -354.99798583984375 139.49699401855466 L -354.99798583984375 88.50099945068358 L -358 88.50099945068358 L -358 38.49599838256835 L -354.99798583984375 38.49599838256835 L -354.99798583984375 -6.498000144958494 L -309.0039978027344 -6.498000144958494 L -309.0039978027344 -9.499999999999998 L -258.9989929199219 -9.499999999999998 L -258.9989929199219 -6.498000144958494 L -209.0030059814453 -6.498000144958494 L -209.0030059814453 -9.499999999999998 L -181.0019989013672 -9.499999999999998 L -158.9969940185547 -9.499999999999998 L -158.9969940185547 -6.498000144958494 L -109.0009994506836 -6.498000144958494 L -109.0009994506836 -9.499999999999998 L -58.994998931884766 -9.499999999999998 L -58.994998931884766 -6.498000144958494 L -31.003000259399414 -6.498000144958494 L -31.003000259399414 40.49599838256835 L -28 40.49599838256835 L -28 90.50099945068358 L -31.003000259399414 90.50099945068358 L -31.003000259399414 139.49699401855466 L -28 139.49699401855466 L -28 189.50300598144528 L -31.003000259399414 189.50300598144528 L -31.003000259399414 239.49899291992182 L -28 239.49899291992182 L -28 289.5039978027343 L -31.003000259399414 289.5039978027343 L -31.003000259399414 337.49999999999994 L -28 337.49999999999994 L -28 337.5979919433593 M -177.29800415039062 -108.49999999999997 L -177.29800415039062 -111.50299835205075 L -197.0030059814453 -111.50299835205075 L -227.30299377441406 -111.50299835205075 L -227.30299377441406 -108.49999999999997 L -277 -108.49999999999997 L -277 -111.50299835205075 L -277 -258.49999999999994 L -197.0030059814453 -258.49999999999994 L -106.99800109863281 -258.49999999999994 L -27 -258.49999999999994 L -27 -208.60299682617182 L -30.003000259399414 -208.60299682617182 L -30.003000259399414 -158.5980072021484 L -27 -158.5980072021484 L -27 -111.50299835205075 L -27 -108.49999999999997 L -77.0979995727539 -108.49999999999997 L -77.0979995727539 -111.50299835205075 L -106.99800109863281 -111.50299835205075 L -127.10299682617188 -111.50299835205075 L -127.10299682617188 -108.49999999999997 L -177.29800415039062 -108.49999999999997 M -158.9980010986328 -17.499999999999996 L -158.9980010986328 -20.50300025939941 L -209.0030059814453 -20.50300025939941 L -209.0030059814453 -17.499999999999996 L -226.0030059814453 -17.499999999999996 L -243.0030059814453 -17.499999999999996 L -258.99798583984375 -17.499999999999996 L -258.99798583984375 -20.50300025939941 L -309.00299072265625 -20.50300025939941 L -309.00299072265625 -17.499999999999996 L -358 -17.499999999999996 L -358 -20.50300025939941 L -358 -67.4980010986328 L -354.99798583984375 -67.4980010986328 L -354.99798583984375 -97.49999999999997 L -277 -97.49999999999997 L -243.0030059814453 -97.49999999999997 L -243.0030059814453 -94.4980010986328 L -226.0030059814453 -94.4980010986328 L -205.9980010986328 -94.4980010986328 L -181.0030059814453 -94.4980010986328 L -160.9980010986328 -94.4980010986328 L -142.9980010986328 -94.4980010986328 L -142.9980010986328 -97.49999999999997 L -31.003000259399414 -97.49999999999997 L -31.003000259399414 -67.4980010986328 L -28 -67.4980010986328 L -28 -20.50300025939941 L -28 -17.499999999999996 L -58.99800109863281 -17.499999999999996 L -58.99800109863281 -20.50300025939941 L -109.00299835205078 -20.50300025939941 L -109.00299835205078 -17.499999999999996 L -142.9980010986328 -17.499999999999996 L -158.9980010986328 -17.499999999999996 M -358 348.49999999999994 L -354.99798583984375 348.49999999999994 L -308.00299072265625 348.49999999999994 L -308.00299072265625 351.4030151367187 L -257.99798583984375 351.4030151367187 L -257.99798583984375 348.49999999999994 L -243.0030059814453 348.49999999999994 L -208.0030059814453 348.49999999999994 L -208.0030059814453 351.4030151367187 L -206.9980010986328 351.4030151367187 L -183.0030059814453 351.4030151367187 L -162.9980010986328 351.4030151367187 L -157.9980010986328 351.4030151367187 L -157.9980010986328 348.49999999999994 L -142.9980010986328 348.49999999999994 L -108.00299835205078 348.49999999999994 L -108.00299835205078 351.4030151367187 L -57.99800109863281 351.4030151367187 L -57.99800109863281 348.49999999999994 L -28 348.49999999999994 L -28 351.4030151367187 L -28 398.49798583984364 L -31.003000259399414 398.49798583984364 L -31.003000259399414 428.4999999999999 L -142.9980010986328 428.4999999999999 L -142.9980010986328 425.49798583984364 L -183.0030059814453 425.49798583984364 L -227.0030059814453 425.49798583984364 L -243.0030059814453 425.49798583984364 L -243.0030059814453 428.4999999999999 L -354.99798583984375 428.4999999999999 L -354.99798583984375 398.49798583984364 L -358 398.49798583984364 L -358 348.49999999999994 M 245 -117.49800109863278 L 248.0030059814453 -117.49800109863278 L 248.0030059814453 -167.50300598144528 L 245 -167.50300598144528 L 245 -217.49800109863276 L 248.0030059814453 -217.49800109863276 L 248.0030059814453 -264.4979858398437 L 295.00299072265625 -264.4979858398437 L 295.00299072265625 -267.49999999999994 L 344.99798583984375 -267.49999999999994 L 344.99798583984375 -264.4979858398437 L 395 -264.4979858398437 L 395 -20.50300025939941 L 344.99798583984375 -20.50300025939941 L 344.99798583984375 -17.499999999999996 L 295.00299072265625 -17.499999999999996 L 295.00299072265625 -20.50300025939941 L 248.0030059814453 -20.50300025939941 L 248.0030059814453 -67.50299835205077 L 245 -67.50299835205077 L 245 -117.49800109863278 M 234 -20.499999999999996 L 184.0030059814453 -20.499999999999996 L 133.9980010986328 -20.499999999999996 L 84.00299835205078 -20.499999999999996 L 68 -20.499999999999996 L 60 -20.499999999999996 L 33.99800109863281 -20.499999999999996 L -16 -20.499999999999996 L -16 -170.49999999999997 L 33.99800109863281 -170.49999999999997 L 33.99800109863281 -167.49800109863278 L 60 -167.49800109863278 L 68 -167.49800109863278 L 84.00299835205078 -167.49800109863278 L 84.00299835205078 -170.49999999999997 L 133.9980010986328 -170.49999999999997 L 133.9980010986328 -167.49800109863278 L 184.0030059814453 -167.49800109863278 L 184.0030059814453 -170.49999999999997 L 234 -170.49999999999997 L 234 -120.60299682617185 L 230.9980010986328 -120.60299682617185 L 230.9980010986328 -70.59799957275389 L 234 -70.59799957275389 L 234 -20.499999999999996 M 234 -9.499999999999998 L 245 -9.499999999999998 L 282.99798583984375 -9.499999999999998 L 282.99798583984375 -6.498000144958494 L 354.99798583984375 -6.498000144958494 L 358.00299072265625 -6.498000144958494 L 394.99798583984375 -6.498000144958494 L 394.99798583984375 115.50299835205075 L 398 115.50299835205075 L 398 215.49800109863276 L 394.99798583984375 215.49800109863276 L 394.99798583984375 290.5020141601562 L 394.99798583984375 290.51000976562494 L 394.99798583984375 337.4979858398437 L 354.99798583984375 337.4979858398437 L 282.99798583984375 337.4979858398437 L 282.99798583984375 340.49999999999994 L 183.0030059814453 340.49999999999994 L 183.0030059814453 337.4979858398437 L 107.99800109863281 337.4979858398437 L 71.00299835205078 337.4979858398437 L 71.00299835205078 215.49800109863276 L 68 215.49800109863276 L 68 115.50299835205075 L 71.00299835205078 115.50299835205075 L 71.00299835205078 -6.498000144958494 L 107.99800109863281 -6.498000144958494 L 111.00299835205078 -6.498000144958494 L 183.0030059814453 -6.498000144958494 L 183.0030059814453 -9.499999999999998 L 234 -9.499999999999998 M 60 115.49800109863278 L 56.99700164794922 115.49800109863278 L 56.99700164794922 215.50300598144526 L 60 215.50300598144526 L 60 340.49999999999994 L 56.99700164794922 340.49999999999994 L 30.00200080871582 340.49999999999994 L 30.00200080871582 337.4979858398437 L -16.99799919128418 337.4979858398437 L -20 337.4979858398437 L -20 289.5029907226562 L -16.99799919128418 289.5029907226562 L -16.99799919128418 239.49800109863276 L -20 239.49800109863276 L -20 189.50300598144528 L -16.99799919128418 189.50300598144528 L -16.99799919128418 139.49800109863278 L -20 139.49800109863278 L -20 90.50299835205077 L -16.99799919128418 90.50299835205077 L -16.99799919128418 40.498001098632805 L -20 40.498001098632805 L -20 -6.498000144958494 L -16.99799919128418 -6.498000144958494 L 30.00200080871582 -6.498000144958494 L 30.00200080871582 -9.499999999999998 L 56.99700164794922 -9.499999999999998 L 60 -9.499999999999998 L 60 115.49800109863278 M -446 -9.499999999999998 L -442.99798583984375 -9.499999999999998 L -416.00299072265625 -9.499999999999998 L -416.00299072265625 -6.498000144958494 L -369.00299072265625 -6.498000144958494 L -366 -6.498000144958494 L -366 38.498001098632805 L -369.00299072265625 38.498001098632805 L -369.00299072265625 88.50299835205077 L -366 88.50299835205077 L -366 139.49800109863278 L -369.00299072265625 139.49800109863278 L -369.00299072265625 189.50300598144528 L -366 189.50300598144528 L -366 238.49800109863276 L -369.00299072265625 238.49800109863276 L -369.00299072265625 288.5029907226562 L -366 288.5029907226562 L -366 337.4979858398437 L -369.00299072265625 337.4979858398437 L -416.00299072265625 337.4979858398437 L -416.00299072265625 340.49999999999994 L -442.99798583984375 340.49999999999994 L -446 340.49999999999994 L -446 215.50300598144526 L -442.99798583984375 215.50300598144526 L -442.99798583984375 115.49800109863278 L -446 115.49800109863278 L -446 -9.499999999999998 M -219.09100341796875 -55.68700027465819 L -216 -55.19800186157225 L -212.90899658203125 -55.68700027465819 L -210.12100219726562 -57.10800170898436 L -207.9080047607422 -59.3209991455078 L -206.48699951171875 -62.109001159667955 L -205.9980010986328 -65.19999694824217 L -206.05116271972656 -65.53600311279295 L -206.48699951171875 -68.29100036621092 L -207.9080047607422 -71.07900238037108 L -210.12100219726562 -73.29199981689452 L -212.90899658203125 -74.71299743652342 L -216 -75.20300292968749 L -219.09100341796875 -74.71299743652342 L -221.87899780273438 -73.29199981689452 L -224.0919952392578 -71.07900238037108 L -225.51300048828125 -68.29100036621092 L -225.94973754882812 -65.53600311279295 L -226.0030059814453 -65.19999694824217 L -225.51300048828125 -62.109001159667955 L -224.0919952392578 -59.3209991455078 L -221.87899780273438 -57.10800170898436 L -219.09100341796875 -55.68700027465819 M -174.09100341796875 -55.68700027465819 L -171 -55.19800186157225 L -167.90899658203125 -55.68700027465819 L -165.12100219726562 -57.10800170898436 L -162.9080047607422 -59.3209991455078 L -161.48699951171875 -62.109001159667955 L -160.9980010986328 -65.19999694824217 L -161.05116271972656 -65.53600311279295 L -161.48699951171875 -68.29100036621092 L -162.9080047607422 -71.07900238037108 L -165.12100219726562 -73.29199981689452 L -167.90899658203125 -74.71299743652342 L -171 -75.20300292968749 L -174.09100341796875 -74.71299743652342 L -176.87899780273438 -73.29199981689452 L -179.0919952392578 -71.07900238037108 L -180.51300048828125 -68.29100036621092 L -180.94973754882812 -65.53600311279295 L -181.0030059814453 -65.19999694824217 L -180.51300048828125 -62.109001159667955 L -179.0919952392578 -59.3209991455078 L -176.87899780273438 -57.10800170898436 L -174.09100341796875 -55.68700027465819 M -220.09100341796875 400.3129882812499 L -217 400.803009033203 L -213.90899658203125 400.3129882812499 L -211.12100219726562 398.8919982910155 L -208.9080047607422 396.678985595703 L -207.48699951171875 393.8909912109374 L -207.38021850585938 393.21600341796864 L -206.9980010986328 390.79998779296864 L -207.48699951171875 387.709014892578 L -208.9080047607422 384.92098999023426 L -211.12100219726562 382.70800781249994 L -213.90899658203125 381.28698730468744 L -217 380.79800415039057 L -220.09100341796875 381.28698730468744 L -222.87899780273438 382.70800781249994 L -225.0919952392578 384.92098999023426 L -226.51300048828125 387.709014892578 L -227.0030059814453 390.79998779296864 L -226.62001037597656 393.21600341796864 L -226.51300048828125 393.8909912109374 L -225.0919952392578 396.678985595703 L -222.87899780273438 398.8919982910155 L -220.09100341796875 400.3129882812499 M -175.5232696533203 400.803009033203 L -173 401.2030029296874 L -170.4767303466797 400.803009033203 L -169.90899658203125 400.7130126953124 L -167.12100219726562 399.2919921874999 L -164.9080047607422 397.0790100097655 L -163.48699951171875 394.29098510742176 L -163.3169403076172 393.21600341796864 L -162.9980010986328 391.20001220703114 L -163.48699951171875 388.1090087890624 L -164.9080047607422 385.32101440429676 L -167.12100219726562 383.1080017089843 L -169.90899658203125 381.68701171874994 L -173 381.19799804687494 L -176.09100341796875 381.68701171874994 L -178.87899780273438 383.1080017089843 L -181.0919952392578 385.32101440429676 L -182.51300048828125 388.1090087890624 L -183.0030059814453 391.20001220703114 L -182.68341064453125 393.21600341796864 L -182.51300048828125 394.29098510742176 L -181.0919952392578 397.0790100097655 L -178.87899780273438 399.2919921874999 L -176.09100341796875 400.7130126953124 L -175.5232696533203 400.803009033203 M 111.00299835205078 65.53600311279295 L 111.00299835205078 40.50500106811523 L 107.99800109863281 40.50500106811523 L 107.99800109863281 65.53600311279295 L 107.99800109863281 90.50299835205077 L 111.00299835205078 90.50299835205077 L 111.00299835205078 65.53600311279295 M 111.00299835205078 262.1440124511718 L 111.00299835205078 240.51199340820307 L 107.99800109863281 240.51199340820307 L 107.99800109863281 262.1440124511718 L 107.99800109863281 287.4970092773437 L 107.99800109863281 290.5020141601562 L 107.99800109863281 290.51000976562494 L 111.00299835205078 290.51000976562494 L 111.00299835205078 290.5020141601562 L 111.00299835205078 287.4970092773437 L 111.00299835205078 262.1440124511718 M 354.99798583984375 262.1440124511718 L 354.99798583984375 287.4970092773437 L 354.99798583984375 290.5020141601562 L 354.99798583984375 290.51000976562494 L 358.00299072265625 290.51000976562494 L 358.00299072265625 290.5020141601562 L 358.00299072265625 287.4970092773437 L 358.00299072265625 262.1440124511718 L 358.00299072265625 240.81199645996088 L 354.99798583984375 240.81199645996088 L 354.99798583984375 262.1440124511718 M 354.99798583984375 65.53600311279295 L 354.99798583984375 90.60299682617186 L 356.79901123046875 90.60299682617186 L 358.00299072265625 90.60299682617186 L 358.00299072265625 65.53600311279295 L 358.00299072265625 40.50500106811523 L 354.99798583984375 40.50500106811523 L 354.99798583984375 65.53600311279295 M 196.60800170898438 287.4970092773437 L 183.0030059814453 287.4970092773437 L 158.00100708007812 287.4970092773437 L 158.00100708007812 290.5020141601562 L 196.60800170898438 290.5020141601562 L 207.9969940185547 290.5020141601562 L 207.9969940185547 287.4970092773437 L 196.60800170898438 287.4970092773437 M 262.1440124511719 287.4970092773437 L 258.00299072265625 287.4970092773437 L 258.00299072265625 288.64001464843744 L 258.00299072265625 290.5020141601562 L 262.1440124511719 290.5020141601562 L 308 290.5020141601562 L 308 287.4970092773437 L 282.99798583984375 287.4970092773437 L 262.1440124511719 287.4970092773437 M -197.0030059814453 -117.29799652099607 L -106.99800109863281 -117.29799652099607 L -106.99800109863281 -158.5980072021484 L -106.99800109863281 -208.60299682617182 L -106.99800109863281 -227.302993774414 L -197.0030059814453 -227.302993774414 L -197.0030059814453 -117.29799652099607 M 354.99798583984375 190.80499267578122 L 358.00299072265625 190.80499267578122 L 358.00299072265625 140.6089935302734 L 354.99798583984375 140.6089935302734 L 354.99798583984375 190.80499267578122 M 107.99800109863281 190.50500488281247 L 111.00299835205078 190.50500488281247 L 111.00299835205078 140.50900268554685 L 107.99800109863281 140.50900268554685 L 107.99800109863281 190.50500488281247 z" fill="none" stroke="rgb(255,0,0)" stroke-width="0.001mm" />
</svg>